<svg id="svg" version="1.1" xmlns="http://www.w3.org/2000/svg" xmlns:xlink="http://www.w3.org/1999/xlink" width="400" height="365.8536585365854" viewBox="0, 0, 400,365.8536585365854"><g id="svgg"><path id="path0" d="M135.765 45.771 C 97.393 48.954,68.100 76.968,66.720 111.802 C 65.865 133.393,74.193 151.178,92.429 166.707 C 107.681 179.693,111.067 192.134,104.679 211.711 C 93.189 246.924,102.223 281.105,129.574 305.899 C 184.269 355.483,278.684 340.439,309.262 277.269 C 319.281 256.570,320.436 235.843,312.878 212.357 C 306.138 191.415,309.239 180.611,326.299 165.590 C 373.014 124.461,349.745 55.671,285.931 46.247 C 275.344 44.684,263.617 45.738,250.568 49.426 C 243.391 51.454,242.126 51.370,239.194 48.667 C 235.600 45.354,233.182 45.951,221.409 53.059 C 204.230 63.431,195.075 64.296,189.788 56.047 C 187.704 52.795,186.922 52.452,182.992 53.063 C 179.216 53.651,177.645 53.389,171.669 51.178 C 159.347 46.619,147.343 44.811,135.765 45.771 M150.961 81.257 C 166.392 83.004,179.789 92.674,186.313 106.773 C 191.493 117.968,191.843 118.218,199.510 116.217 C 205.790 114.577,210.597 114.715,216.351 116.700 L 218.429 117.417 220.010 116.414 C 221.769 115.298,222.880 113.784,224.890 109.760 C 237.607 84.303,268.804 75.930,292.386 91.645 C 318.685 109.171,319.327 148.834,293.610 167.328 C 265.296 187.689,225.451 170.763,220.821 136.408 C 219.303 125.144,218.827 124.030,214.879 122.505 C 202.742 117.818,193.650 122.888,189.221 136.814 C 179.086 168.686,144.277 180.485,118.700 160.718 C 83.492 133.508,106.739 76.251,150.961 81.257 M192.216 166.057 C 198.206 172.859,195.670 183.358,188.239 182.521 C 180.945 181.698,179.678 170.366,186.428 166.319 C 188.293 165.201,191.341 165.063,192.216 166.057 M219.464 165.806 C 227.172 168.718,225.804 182.580,217.805 182.611 C 211.591 182.634,209.213 176.437,212.633 169.130 C 214.410 165.331,216.070 164.523,219.464 165.806 M205.511 166.307 C 206.187 166.807,206.154 166.861,204.818 167.423 C 203.258 168.080,200.915 167.645,200.915 166.699 C 200.915 165.713,204.315 165.423,205.511 166.307 M267.232 248.896 C 266.788 254.142,256.833 265.982,247.890 271.901 C 237.053 279.074,221.106 283.696,211.114 282.561 C 203.216 281.663,204.420 280.453,216.075 277.574 C 236.460 272.538,246.139 267.247,260.089 253.513 C 266.468 247.232,267.426 246.614,267.232 248.896 " stroke="none" fill="#faf9fa" fill-rule="evenodd"></path><path id="path1" d="M140.575 81.287 C 101.591 85.809,87.584 136.670,118.700 160.718 C 144.277 180.485,179.086 168.686,189.221 136.814 C 193.619 122.984,202.629 117.882,214.659 122.410 C 216.004 122.916,217.163 123.330,217.235 123.330 C 217.784 123.330,218.502 120.820,218.408 119.229 L 218.298 117.358 216.285 116.672 C 210.542 114.715,205.760 114.585,199.510 116.217 C 191.843 118.218,191.493 117.968,186.313 106.773 C 178.202 89.242,159.900 79.045,140.575 81.287 " stroke="none" fill="#12adea" fill-rule="evenodd"></path><path id="path2" d="M262.214 84.403 C 248.292 85.909,236.114 93.232,228.551 104.646 C 224.905 110.150,224.385 111.646,223.968 117.841 C 223.727 121.424,223.409 123.169,222.503 125.892 C 220.099 133.118,221.003 140.394,225.452 149.636 C 243.248 186.596,296.783 183.105,309.766 144.138 C 320.059 113.241,294.337 80.928,262.214 84.403 " stroke="none" fill="#c3216f" fill-rule="evenodd"></path><path id="path3" d="M57.436 0.876 C 40.701 7.833,26.102 23.436,23.220 37.446 C 22.279 42.019,22.609 330.464,23.559 333.760 C 26.807 345.031,39.138 359.376,50.473 365.070 L 52.256 365.965 207.110 365.965 L 361.964 365.965 363.873 364.999 C 376.080 358.819,388.669 343.252,391.505 330.833 C 392.529 326.346,392.468 42.597,391.442 38.243 C 387.910 23.263,373.078 7.288,356.766 0.895 L 354.482 0.000 206.975 0.015 L 59.469 0.031 57.436 0.876 M241.692 41.051 C 242.110 41.263,243.295 42.008,244.326 42.705 C 246.943 44.475,248.201 44.546,253.797 43.238 C 274.953 38.293,294.515 40.202,312.717 48.989 C 357.127 70.428,369.716 123.093,339.193 159.753 C 336.550 162.927,332.678 166.675,326.098 172.430 C 314.522 182.555,312.164 193.608,317.836 211.162 C 325.728 235.585,324.359 258.044,313.655 279.780 C 279.919 348.288,176.375 361.869,121.500 304.984 C 95.867 278.411,88.421 245.626,99.901 209.881 C 105.592 192.158,102.729 182.202,88.388 169.845 C 69.842 153.864,60.907 134.689,61.600 112.351 C 63.202 60.751,120.831 26.348,172.553 46.116 C 177.898 48.159,180.504 48.359,184.785 47.052 C 191.035 45.146,193.259 46.139,194.312 51.304 C 195.871 58.952,203.451 58.041,219.611 48.264 C 231.183 41.263,237.836 39.090,241.692 41.051 " stroke="none" fill="#2b1434" fill-rule="evenodd"></path><path id="path4" d="M235.022 40.798 C 231.954 41.487,226.224 44.263,219.611 48.264 C 203.451 58.041,195.871 58.952,194.312 51.304 C 193.259 46.139,191.035 45.146,184.785 47.052 C 180.504 48.359,177.898 48.159,172.553 46.116 C 120.831 26.348,63.202 60.751,61.600 112.351 C 60.907 134.689,69.842 153.864,88.388 169.845 C 102.729 182.202,105.592 192.158,99.901 209.881 C 88.421 245.626,95.867 278.411,121.500 304.984 C 176.375 361.869,279.919 348.288,313.655 279.780 C 324.359 258.044,325.728 235.585,317.836 211.162 C 312.164 193.608,314.522 182.555,326.098 172.430 C 332.678 166.675,336.550 162.927,339.193 159.753 C 369.716 123.093,357.127 70.428,312.717 48.989 C 294.515 40.202,274.953 38.293,253.797 43.238 C 248.201 44.546,246.943 44.475,244.326 42.705 C 240.818 40.332,238.871 39.933,235.022 40.798 M147.133 45.724 C 155.545 46.376,163.424 48.127,171.669 51.178 C 177.645 53.389,179.216 53.651,182.992 53.063 C 186.922 52.452,187.704 52.795,189.788 56.047 C 195.075 64.296,204.230 63.431,221.409 53.059 C 233.182 45.951,235.600 45.354,239.194 48.667 C 242.126 51.370,243.391 51.454,250.568 49.426 C 263.617 45.738,275.344 44.684,285.931 46.247 C 349.745 55.671,373.014 124.461,326.299 165.590 C 309.239 180.611,306.138 191.415,312.878 212.357 C 320.436 235.843,319.281 256.570,309.262 277.269 C 278.684 340.439,184.269 355.483,129.574 305.899 C 102.223 281.105,93.189 246.924,104.679 211.711 C 111.067 192.134,107.681 179.693,92.429 166.707 C 68.116 146.004,60.241 117.396,71.361 90.171 C 82.856 62.027,114.905 43.227,147.133 45.724 M258.343 84.374 C 243.967 86.977,231.552 96.406,224.877 109.790 C 222.916 113.722,221.580 115.526,219.931 116.467 C 218.536 117.264,218.487 117.357,218.484 119.231 C 218.483 120.298,218.233 121.650,217.930 122.236 C 217.411 123.240,217.442 123.424,218.463 125.433 C 219.529 127.530,219.735 128.498,220.848 136.612 C 226.010 174.261,273.096 189.551,299.477 162.145 C 330.494 129.922,302.202 76.432,258.343 84.374 M275.539 85.124 C 302.238 90.583,318.352 118.366,309.766 144.138 C 296.783 183.105,243.248 186.596,225.452 149.636 C 221.003 140.394,220.099 133.118,222.503 125.892 C 223.409 123.169,223.727 121.424,223.968 117.841 C 225.374 96.972,251.725 80.255,275.539 85.124 M186.428 166.319 C 181.141 169.489,180.417 178.228,185.179 181.380 C 191.054 185.268,197.352 179.591,195.202 172.345 C 193.226 165.687,190.549 163.849,186.428 166.319 M214.350 166.062 C 209.763 171.131,210.096 179.714,214.971 182.027 C 222.895 185.788,228.293 173.574,221.533 167.178 C 219.595 165.344,215.567 164.718,214.350 166.062 M201.372 166.025 C 200.507 166.374,200.917 167.190,202.164 167.602 C 203.940 168.188,206.641 167.143,205.511 166.307 C 204.832 165.806,202.338 165.635,201.372 166.025 M260.089 253.513 C 246.139 267.247,236.460 272.538,216.075 277.574 C 204.420 280.453,203.216 281.663,211.114 282.561 C 221.106 283.696,237.053 279.074,247.890 271.901 C 256.833 265.982,266.788 254.142,267.232 248.896 C 267.426 246.614,266.468 247.232,260.089 253.513 " stroke="none" fill="#746a7c" fill-rule="evenodd"></path></g></svg>